<?xml version="1.0" encoding="utf-8"?>
<!-- Generator: Adobe Illustrator 28.0.0, SVG Export Plug-In . SVG Version: 6.00 Build 0)  -->
<svg version="1.1" id="Layer_1" xmlns="http://www.w3.org/2000/svg" xmlns:xlink="http://www.w3.org/1999/xlink" x="0px" y="0px"
	 viewBox="0 0 800 535.9" style="enable-background:new 0 0 800 535.9;" xml:space="preserve">
<path d="M367.3,488c0.3-5.4,0.5-10.7,0.8-16c-0.9-15.6-2-28.7-2.9-38.3c-2.1-22.4-3.4-36.5-7.3-55.1c-1.9-9-3.7-18-7.6-29.7
	c-1.1-3.4-5.4-15.9-18.8-42.5c-11.4-22.7-10.9-18.5-17.8-33.4c0,0-7.8-16.8-16.7-47.3c-1.3-4.3-2.1-8.6-2.5-13.1
	c-0.3-3.6-0.3-7.1,0-10.7c2.2-6.9,3.9-14,5.2-21.2c1.8-9.8,2.7-14.7,2.1-21.4c-1.2-13.5-7.7-25.1-13-26.4c-2-0.5-4.1-0.5-6.1-0.2
	c-1.1,0.2-2.1,0.6-4,1.3c-1.9,0.7-3.8,1.5-4.9,2c-0.8,0.4-1.7,0.6-2.6,0.7c-1.1,0.1-2.2,0.1-3.3-0.2c-4.4-1-3.5-0.2-9-1.7
	c-4.7-1.2-5.5-1.8-18.6-6.7c-2.1-0.7-4.1-1.6-6-2.7c-0.8-0.5-3.2-1.8-5.2-3.6c-4-3.4-5.8-7.5-7.1-10.4c-2.2-5-3.3-10.3-3.4-15.8
	c-0.2-1.1-0.6-2.8-1.2-4.8c-1.1-3.8-1.7-4.8-2.1-7.5c-0.3-2.2-0.6-3.9,0.2-5.9c0.6-1.4,1.4-2.4,2.1-3.2c1.2-1.4,2.7-2.5,4.3-3.3
	l5.9-3.2c5.3-2.9,5.7-3.2,9-5c2.8-1.5,6-3.2,8.5-4.4c4.4-2.3,5.4-2.7,7-4c1.9-1.5,3.6-3.2,5-5.2c1-1.4,2.1-2.8,2.8-5.1
	c0.5-1.4,0.8-2.9,0.9-4.4c0-2.3,0.1-4.6,0.1-7c0.5-1.5,1.2-3,2.1-4.3c0.8-1.3,1.8-2.5,3-3.5c1.7-1.6,2.7-2,6.4-4.2
	c1.1-0.7-1.3,0.7,7.4-4.5c3.3-2,5-3,5.4-3.2c5-3,10.1-5.5,15.5-7.7c1.5-0.6,3.3-1.3,5.7-2c2.8-0.9,7.9-2.4,14.6-2.9
	c3.3-0.2,6.6-0.2,9.9,0.1c2,0.1,4,0.3,6,0.7c1.6,0.3,3.3,0.7,5.5,1.6c1.1,0.5,2.2,1.1,3.3,1.8l4.3,2.8l6.4,4.1l4.8,3.1
	c6.6,4.3,12.5,9.3,14.7,11.2c2.8,2.4,5.6,4.8,9.1,8.5s5.4,6.1,6.1,7c2.4,3,4,5.5,5.2,7.3c2.4,3.6,4.1,6.5,4.8,7.8
	c3.5,6,6.5,10.9,12.5,20.6c1.3,2.1,0.7,1.1,9.1,14.2c10.2,16,11.6,18.3,15.2,23.6c2,2.9,4,5.8,8,11.5c4.5,6.4,6.9,9.8,9.4,13.4
	c8.3,11.5,15.4,20.3,21.3,27.4c4.4,5.4,8.8,10.7,9.3,11.3l4.1,4.8c7.7,9,11.6,13.8,18.5,21.9c7.3,8.6,12.9,14.9,22.1,25.5
	c4.6,5.3,8.5,9.8,11.4,13l27.5,31.5c5.5,6.3,11,12.6,16.5,18.9c4.6,5.2,9.2,10.4,13.8,15.5l11.6,13l12,14.3l10,12.8
	c2.3,3.2,4.6,6.5,6.9,9.7c2.6,4.3,5.2,8.6,7.9,12.9l8.4,16.1c1.4,3.3,2.7,6.6,4.1,9.9c1.3,3.3,2.6,7,3.8,10.8c1.2,3.9,2,7,2.8,10.2
	c0.8,3.2,1.1,5.9,1.7,8.9c1.3,7.3,1.7,14.6,1.2,22c-0.1,1.6-0.2,3.2-0.5,5c-0.3,1.8-0.5,2.9-0.7,4.1v7.6c0.2,1.4,0.5,2.8,0.9,4.1
	c0.6,1.9,1.2,4,2.5,6.4c1.4,2.5,3.2,4.6,5.5,6.4c1,0.8,2.6,2,4.9,2.8c1.3,0.5,2.7,0.7,4,0.7c1.4,0,2.8-0.2,4.2-0.7
	c2.1-0.7,3.6-1.6,5.2-2.8c2-1.3,3.8-2.9,5.5-4.6c3.5-2.8,6.7-6,9.6-9.5c2.2-2.6,4.1-5.4,5.8-8.3c1.3-2.2,2.4-4.5,3.4-6.9
	c1.6-3.9,2.8-8,3.7-12.2c1.5-7.9,1.3-14.1,1-19.1c-0.2-3.4-0.4-8.5-2-14.9c-0.8-3.3-1.5-6.2-3.1-9.7c-1.4-3-4.3-8-10.1-12.6
	c-3-2-7.2-4.9-12.1-8.5c-5.6-4.2-8.8-6.6-12.6-10.1c-4.3-4-8.1-8.4-11.4-13.2c-1.4-2.1-2.5-4.4-3.2-6.8c-0.6-2.2-0.9-4.5-0.9-6.8
	c0-2.2,0.2-4.4,0.6-6.6c0.2-1.1,0.5-2.2,0.9-3.3c0.8-2.1,1.9-3.4,2.8-4.5c0.9-1.1,1.9-2.1,3.1-3c1.8-1.3,3.4-1.9,4.9-2.4
	c2.4-0.8,5-1.3,7.5-1.5c1.2-0.1,3-0.2,5.1-0.3c2.9-0.1,4.4-0.2,6.4-0.2c1.9,0,3.8,0.2,5.7,0.4c3.8,0.4,6.8,0.9,8.2,1.1
	c9.2,1.7,17.9,4.5,26.3,8.5c4.5,2.1,7.6,3.9,10.9,5.8c4.6,2.6,7.7,4.4,11.6,7.3c1.8,1.4,3.4,2.7,5.1,4.1c3,2.5,4.7,3.9,6.8,5.8
	c2.8,2.6,5.3,5.4,7.6,8.4c2.1,2.8,4,5.6,5.7,8.6c2.5,4.3,4.6,8.9,6.2,13.6c1.4,4,2.5,8.1,3.2,12.3c0.5,3.2,0.8,6.5,0.9,9.8l0,14.5
	c-0.1,2.7-0.3,6.1-0.8,10c-0.5,4.5-1.3,9-2.3,13.4c-1.3,5.5-3,10.9-5.1,16.1c-2,4.7-4.3,9.3-7,13.6c-3.9,6.5-7.6,10.9-10.2,14
	c-3.7,4.4-7.8,8.6-12,12.5c-4.1,3.8-10.7,9.8-20.4,15.8c-4.8,3-9.8,5.5-15,7.8c-9.5,4.2-19.3,7.3-29.5,9.3l-20.8,2.8l-11,0.4
	c-18.6,0-33.7,0-44.2,0c-12.4,0-19.9,0.1-33.7,0l-20.7,0l-25.8,0l-28.9,0l-18.2-0.1c0.2-1.2,0.2-2.4,0-3.5c-0.2-1.5-0.7-2.6-1.5-4.5
	c-0.6-1.4-1.3-2.8-2.1-4.2c-0.1-0.6-0.1-1.2,0-1.7c0.2-1.1,0.6-2,1.4-2.8c0.8-1.1,1.5-2.2,2.1-3.4c0.7-1.4,1.2-2.8,2-5.5
	c0.8-2.7,1.4-4.9,2.1-8.3c0.6-2.8,1-5.7,1.2-8.6v-13.8c-0.2-0.9-0.5-2.2-0.8-3.8c-0.7-3.3-0.9-5.1-1.2-6.7c-0.6-3.4-1.5-5.8-2.8-9.2
	c-1.3-3.5-2.9-6.8-4.7-10c-2.2-3.8-4.8-7.4-7.8-10.6c-2.7-3.1-5.4-5.6-9.8-9.6l-3.1-2.8v-9.1c0.5-2.4,1.2-4.7,2.1-7
	c0.9-2.3,1.8-4.5,3.5-7.1c1.2-1.7,1.7-2.1,3.3-4.6c0.9-1.3,1.6-2.6,2.3-3.9c1-2.1,1.8-4.3,2.3-6.6c0.9-3.1,1.6-5.8,2-7.9
	c0.6-3.1,0.9-5.6,1.2-7.5c0.2-1.9,0.4-3.6,0.5-4.8c0-4.2,0-8.5,0.1-12.8c-0.4-1.7-0.9-3.2-1.3-4.3c-0.4-1.1-0.6-1.6-1.1-2.2
	c-0.6-0.6-1.3-1-2.1-1.1c-0.3,0-1.1-0.1-2.7,0.7c-1.2,0.7-2,1.4-2.8,2.2c-3,2.8-2.9,2.4-4.5,4.1c-0.9,0.9-1.2,1.3-3,3.6
	c-3.9,4.8-3.9,4.7-5.5,6.8c-1.6,2.2-2.9,3.8-4.3,6.1c-1.4,2.3-2.6,4.8-4.6,9.2s-3.1,7-3.8,9.3c-0.4,1.5-0.7,2.7-1.5,4.4
	c-0.9,1.8-1.9,3.5-3.3,5.1c-0.2,0.2-0.5,0.3-0.8,0.3c-0.9,0.1-1.5-0.6-1.6-0.7c-0.5-0.4-1-0.8-1.4-1.3c-0.3-0.4-0.5-0.9-1-2
	c-0.2-0.5-0.5-1.2-0.7-1.8c-1-2-2.3-4.6-4-7.8c-1.3-2.5-3.4-6.3-6.1-10.3c-2.7-4-5.4-7.1-10.4-12.9c-2.5-2.9-6-6.7-10.2-11
	c-0.5-0.6-1.2-1.1-2-1.4c-1.7-0.6-3.1,0.1-3.7,0.4c-1.1,0.5-1.9,1.3-2.6,2.2c-0.3,1.1-0.6,2.3-0.9,3.5c-0.2,1.5-0.3,3-0.4,4.4
	c0,0.9,0.1,2.3,0.2,3.8c0.2,2,0.4,3.6,0.7,5.5c0.9,5.2,1.3,7.8,2,10.2c0.5,2.1,1.2,4.2,2,6.2c0.7,1.7,1.3,3,2.6,5.4
	c0.4,0.7,1.8,3.6,4.2,7.8s1.8,2.9,4.2,7.2c1.3,2.3,2.7,4.8,4.2,6.5c0.6,0.7,1.1,1.3,1.7,2c0.6,0.6,1.1,1.2,1.5,1.8
	c0.4,0.7,0.6,1.3,0.8,2.1v5.4c-0.3,0.6-0.6,1.3-1.1,2.1c-0.5,0.9-1.1,1.8-1.8,2.7c-0.5,0.6-1,1.3-1.6,1.8c0,0-0.5,0.6-3.2,3.8
	s-5.1,6.9-7.2,10.3c-1.8,2.8-3,5-3.8,6.3c-1.4,2.4-2.1,3.7-3,5.5c-1.1,2.3-1.9,4.7-2.6,7.1c-0.9,3.2-1.6,6.4-2,9.7
	c-0.3,2.6-0.3,4.4-0.4,7.8c-0.1,5.1-0.1,7.7,0.3,10.9c0.6,4.1,1.6,7.2,2.5,9.7c0.8,2.5,1.8,4.9,3,7.3c1.9,3.8,4.1,7.4,6.7,10.7
	l-0.1,2.9c-0.7,0.4-1.3,0.8-1.9,1.3c-1.2,1-2.4,2.1-3.3,3.4c-1.1,1.4-2,2.6-2.7,4.4c-0.4,1-0.6,2-0.7,3.1h-4.2c-2,0-3.4,0-3.7,0
	c-8.8,0.1-16.2-0.2-16.2-0.2c-4.4-0.2-4.7-0.3-8.7-0.4c-4-0.1-4.5,0-7.8,0c-5.9-0.1-11.8-0.7-17.7-1.7c-2.4-0.4-4.6-0.9-6.7-2.6
	c-0.7-0.6-2.7-2.3-3.5-5.1c-0.6-1.9-0.3-3.5,0.1-5.9c0.5-3,1.5-5.9,2.9-8.5c0.9-1.8,2-3.5,3.3-5c1.5-1.8,3.2-3.3,5.1-4.5
	c2.8-1.8,5.9-2.9,9.2-3.2l5.7-0.3c0.9-0.1,1.7-0.4,2.4-0.8c1-0.5,1.9-1.3,2.6-2.2C366.7,492.2,367.2,489.2,367.3,488z"/>
<path d="M179.1,535.8c9.4,0.1,18.9,0.2,28.7,0.1c9.3-0.1,18.4-0.2,27.4-0.5c2,0.3,3.9,0.1,5.8-0.6c0.6-0.2,1.2-0.5,1.7-0.8
	c0.4-0.4,0.6-0.9,0.8-1.4c0.4-1.1,0.2-2.1-0.1-3.2c-0.5-1.9-1.2-3.8-2.1-5.6c-0.7-1.3-1.5-2.6-2.6-3.7c-1.4-1.5-2.9-2.8-4.8-3.8
	c-2.3-1.4-4.9-2.2-7.5-2.7l-22.6,0.5l-2.7-0.1v-2.3c0.6-0.3,1.4-0.8,2.4-1.5c1-0.7,1.8-1.4,4.2-3.7c2.4-2.2,3.8-3.5,4.6-4.4
	c0.8-0.9,1.4-1.6,2.6-3.2c2-2.6,4.1-5.2,6.3-9.2c1.8-3.2,3.3-6.4,4.6-9.8c1.1-2.9,2-5.8,2.6-8.9c0.4-2,0.6-3.7,0.8-5v-11.1
	c-0.2-1.2-0.5-2.6-1-4.2c-0.4-1.6-0.9-3.1-1.5-4.6c-0.7-1.8-1.5-3.5-2.4-5.2c-0.8-1.4-1.6-2.7-2.5-4c-0.8-1.1-1.6-2.1-2.5-3.1h0.9
	l2.8,2.4c1.7,1.4,1.9,1.6,2.5,2.2c1,1,1.8,2.1,2.6,3.3c2,2.8,3.2,5.9,3.8,9.3c0.2,1.2,0.3,2.3,0.4,3.5c0.2,2.7,0.3,5.5,0.4,8.2
	c0.2,4.9,0.4,9.8,0.4,14.5c0.4,3.9,0.8,7.3,1.3,10c0.3,2,0.8,5,1.7,8.9c0.6,2.4,1.2,5,2.2,8.3s1.4,3.5,2.9,7.5
	c0.7,1.8,0.7,2.3,3,9.8c1.9,6.2,2.1,6.8,2.7,7.8c2,3.3,5,5,7.2,6l12.6,0.1l4.5,0c1.3-0.1,2.6-0.4,3.8-1c0.9-0.4,2.1-1,3.2-2.5
	c0.8-1,1.3-2.2,1.6-3.5l0-5.1c-0.7-1.6-1.6-3-2.7-4.3c-1.5-1.7-3.4-2.9-5.6-3.6h-4.6c-0.7-0.5-1.3-1-1.9-1.6
	c-0.7-0.8-1.2-1.6-1.6-2.5c-1.1-2.4-1.7-4.7-2.2-6.7c-0.5-2-0.9-3.8-1.4-6.7s-0.8-5.4-0.9-6c0,0-0.3-2.3-0.4-4.9
	c-0.4-6.5,0.2-14.8,0.3-16.2c0.1-1.5,0.3-3.7,0.7-6.2c0.6-4.3,1.3-7.4,2.1-10.7c1.3-5.5,2.6-9.8,3.3-12.2c0.8-2.4,1.5-4.6,3.2-9.4
	c2.9-8.3,3.1-8.4,4.5-12.5c2.2-6.5,3.4-11,3.6-12c0.9-3.4,1.7-6.5,2.3-10.8c0.5-3.2,0.7-6,0.8-8c0-3.1,0-6.2,0-9.2
	c-0.1-0.9-0.4-2.2-0.7-3.7c-0.6-3.4-0.9-5.1-1.2-6.3c-0.6-2.6-1.3-5.1-2.2-7.6c-1.4-3.8-2.9-6.6-5.1-10.8c-1.7-3.2-2.7-4.8-3.3-7.6
	c-0.3-1.6-0.5-3.3-0.4-4.9c-0.1-1.3,0.1-2.5,0.4-3.7c0.3-1.1,0.7-2.3,1.7-3.3c0.8-0.8,1.6-1.3,2.7-1.5c2.4-0.4,4.4-0.8,5.8-1.2
	c3.1-0.7,5.7-1.4,8.8-3c1.2-0.6,2.2-1.1,3.4-2.1c1.8-1.5,2.8-3.1,3.9-4.7c1-1.6,1.2-2.3,3.5-6.4l1.6-2.8c0.2-0.9,0.2-1.8,0-2.7
	c-0.3-1.1-0.8-1.8-1.3-2.6c-0.5-0.8-1.2-2.1-2-4.2c-1.2-2.8-1.7-5.3-2-7c-0.3-1.5-0.5-3-0.6-4.6c0-2.9-0.1-5.8-0.1-8.7
	c-0.2-1-0.5-2-0.8-3c-0.3-0.9-1.7-5.1-5.8-9.9c-1.6-1.8-3.3-3.5-5.1-5.1c-3.6-3.1-7.5-5.8-11.8-8c-1.1-0.5-2.1-1.2-2.9-2
	c-1-1-1.8-2.2-2.4-3.5c-1.5-2.8-2.7-5.8-3.7-8.8c-0.8-2.4-1.4-4.9-1.9-7.4c-0.4-2.2-0.7-4.4-0.9-6.6c0-0.6-0.1-1.2-0.4-1.7
	c-0.6-1-1.7-1.2-2.2-1.2c-0.4-0.1-0.8-0.1-2.2,0.2c-1,0.2-1.9,0.5-2.8,0.9c-1.7,0.8-3.3,1.8-4.7,3.1c-1,0.9-3,2.8-6,7.3
	c-1.4,2.2-2.5,4.3-4.6,8.4c-2.7,5.1-2.8,5.7-4.4,8.3c-2.2,3.6-3.8,5.3-5.4,6.6c-1.2,0.9-1.4,0.8-2.9,2c-0.6,0.4-2.7,2-5.6,5.3
	c-3.2,3.5-6,7.4-8.3,11.6c-2.2,4-3.9,8.3-5.1,12.7c-1.2,4.4-1.9,9-2,13.6c-0.3,1.2-0.8,2.8-1.5,4.6c-0.9,2.4-2,4.8-3.2,7.1
	c-2,3.7-3.8,6.2-7.2,10.8c-0.9,1.2-2.6,3.3-5.8,7.5c-3.7,4.7-5.5,7-6.7,8.5c-3.6,4.4-6.5,7.5-8.1,9.4c-3.6,3.9-4.5,4.7-12.6,13
	c-8.1,8.3-7.9,8.2-13.7,14c-5.1,5.2-5.5,5.4-8.5,8.5c-4,4.1-7.1,7.4-10.9,12.1c-2.6,3.2-5.2,6.5-8.2,11.4c-2,3.3-3.9,6.7-5.5,10.3
	c-2.4,5.5-4.3,11.1-5.6,16.9c-1.2,5.5-2,11.1-2.2,16.8v16.9c0.3,4.8,0.6,8.7,0.9,11.6s0.6,5.3,1,8.1c0.4,2.8,0.8,5.8,1.5,10
	c0.5,2.9,0.9,5.3,1.3,7.1c0.2,0.4,0.2,0.8,0,1.2c-0.1,0.4-0.4,0.7-0.8,1c-0.7,0.4-1.5,0.2-2.2-0.4c-0.9-0.5-1.8-1-2.6-1.6
	c-1.4-1.1-2.7-2.4-3.7-3.8c-0.7-1-2-2.8-4.1-7.5c-1.4-3.2-2.3-5.7-3.3-8.4c-1-2.7-1.8-5.1-2.7-8.2c-1.1-3.9-2-7.9-2.7-11.9
	c-0.6-3.7-1.8-11-1.4-20.1c0.1-2.8,0.4-5.5,0.5-6.8c0.2-2.3,0.6-6.3,1.4-10.4c1-5.3,2.3-8.9,4.1-14.1c1-2.7,2.4-6.2,5.2-13
	c1.5-3.7,2.8-6.7,4.2-10c2.9-7,3.4-8.1,4.4-10.5c1.6-3.9,3.9-9.7,6.3-17.2c0.7-2.2,1.3-4.7,1.9-7.5c0.6-2.7,0.9-5.1,1.1-7.3
	c0.1-1.2,0.3-2.8,0.3-4.8c0.1-1.7,0.1-3.5,0-5.2c-0.2-2.9-0.8-5.7-1.8-8.4c-0.9-2.5-2.2-4.8-3.8-7c-1.2-1.5-2.5-2.9-4.1-4.1
	c0-0.5,0-0.9-0.2-1.3c-0.1-0.4-0.3-0.7-0.6-1c-0.7-1-1.5-2-2.4-2.9c-1.3-1.3-1.9-1.7-2.6-1.9c-0.5-0.2-0.9-0.2-1.4-0.2h-2l-1.9,0
	c-0.3-0.5-0.4-0.9-0.6-1.1c-0.1-0.3-0.3-0.7-0.3-0.9c0-0.4,0.2-0.8,0.5-1.1l1.8-1.2c0.9-0.6,2.8-1.9,4.4-3.1
	c1.6-1.2,3.3-2.6,6.3-5.1l3.3-2.8h1.4c0,0.2,0.1,0.4,0.2,0.6c0.1,0.2,0.2,0.3,0.4,0.5c0.3,0.4,0.3,0.5,0.4,0.6
	c0.1,0.1,0.5,0.2,1.3-0.2c0.7-0.4,1.3-1.1,2.1-2c1.6-1.6,3.1-3.4,4.5-5.2c2.6-3.4,4.2-6.6,5.4-9c1.6-3.4,2.5-5.9,3.9-10
	c1.3-3.6,2-6.3,3-9.6c1.5-5.2,1.9-7.4,2.2-8.5c0.4-2.3,0.7-4.1,0.8-5.5l0-8.5c-0.3-1.8-0.7-3.7-1.2-5.4c-0.3-0.8-0.5-1.6-0.8-2.4
	v-1.9c0.5-1,1-2.1,1.4-3.1l3.2-4.7l2.4-4.5l0.6-2.1l-0.1-3.8l1.4-1.3l2.6-0.1l3.7,0.1c1.1-0.2,2.1-0.5,3.2-0.9
	c0.8-0.3,1.6-0.7,2.3-1.2c0.9-0.5,1.7-1,2.3-1.4c0.2-0.2,0.3-0.3,0.5-0.5c0.1-0.2,0.3-0.3,0.4-0.4h0.4c0.1,0.2,0.2,0.4,0.3,0.6
	c0.2,0.4,0.4,0.8,0.5,1.3c0,1.2,0,2.4,0,3.6c-0.1,0.3-0.2,0.6-0.3,0.8c-0.2,0.4-0.4,0.7-0.6,1.1c-0.2,0.3-0.4,0.6-0.5,1
	c-0.1,0.2-0.3,1,0,1.6c0.1,0.2,0.3,0.4,0.5,0.6c0.2,0,0.4,0,0.6,0c0.2,0,0.4-0.1,0.6-0.2c0.4-0.2,0.8-0.5,1.1-0.8
	c0.6-0.5,1.1-1.1,1.5-1.7c3-4.1,3.1-4.3,3.4-4.9c0.5-1,0.9-2.1,1.3-3.2c0.6-1.6,1-3.3,1.3-5c0.1-1.4,0.3-2.7,0.4-4.1
	c0-0.7,0-1.5,0-2.2c0-1.2-0.1-2.4-0.4-3.6c-0.2-0.9-0.5-1.8-0.9-2.7l-1.7-3.7c-0.3-1-0.6-2.1-0.9-3.1c-0.1-1.5-0.3-3-0.4-4.5
	c-0.2-0.6-0.5-1.2-0.8-1.8c-0.5-0.8-1.1-1.6-1.8-2.3c-0.8-0.8-1.6-1.6-2.6-2.3c-0.7-0.5-1.4-1-2.1-1.3c-0.4-0.2-0.9-0.4-1.3-0.5
	l-9.8-0.4h-10.3c-2.2,0.2-5.8,0.7-9.4,2.3c-1.4,0.6-2.7,1.3-3.8,2.2c-0.6,0.4-1.1,0.8-3.1,2.8c-3.4,3.3-3.1,3.2-4.2,4.1
	c-1.5,1.2-3,2.2-4.7,3.1c-1.5,0.8-2.8,1.4-3.8,1.8c-0.2,0.1-0.4,0.2-0.5,0.5c-0.1,0.3-0.1,0.5,0,0.8c0.1,0.3,0.3,0.6,0.5,0.9
	c0.3,0.4,0.4,0.6,0.4,0.8c0,0.2-0.6,0.9-0.8,1c-1,0.7-1.9,1.7-3,2.3c-1.6,0.9-3,1.9-4.3,3.2c-0.1,0.1-0.4,0.3-0.4,0.7
	c0,0.3,0.1,0.3,0.4,0.6l0.5,0.4c0.2,0.2,0.4,0.4,0.4,0.7c0,0.3,0,0.5-0.1,0.8c-0.1,0.2-0.2,0.5-0.3,0.7c-0.4,0.7-1,1.5-1.8,2.4
	c-1.1,1.3-2.2,2.6-3.5,3.7c-0.9,0.8-1.9,1.5-2.9,2.2c-3.1,2.2-3.7,2.1-5.2,3.6c-0.8,0.8-1.5,1.7-2.1,2.7c-0.8,1.2-1,1.9-2.1,4.1
	c-0.7,1.4-1.1,2.2-1.7,3.1c-1.3,2.2-2.9,4.2-4.7,5.9c-0.8,0.8-0.7,0.5-2.5,2.2c-0.4,0.4-1.5,1.4-3.4,3.2c-1.9,1.8-3.8,3.6-6.4,6.3
	c-2.7,2.8-2.3,2.6-3.4,3.6c-1.1,1-3.6,3.1-5.6,5c-0.7,0.7-1.3,1.4-1.7,2.3c-0.2,0.4-0.3,0.9-0.5,1.3v3.6c-0.3,0.7-0.7,1.6-1.2,2.7
	c-0.3,0.5-0.8,1.8-1.3,2.7c-0.9,1.7-1.6,2.7-2.6,4.1c-2.2,3.3-3.3,5-4.3,7.2c-0.3,0.6-0.8,2.1-1.7,5c-1,2.9-1.1,3.6-1.7,4.9
	c-0.2,0.5-0.8,2-2.6,5.4c-2,3.8-2.4,4.1-4.3,7.8c-2,3.7-1,2.3-3,6.3c0,0-1.4,2.8-1.7,5.4c-0.1,0.5-0.1,1.1,0,1.6
	c0.2,1.2,0.7,1.5,0.9,2.4c0.1,1-0.2,1.3-0.4,2c-0.4,1-1,1.9-1.8,2.7c-1.8,1.8-3.4,3.9-5.1,5.9c-1.7,2-1,1.4-3.9,5
	c-2.9,3.6-3.4,3.9-5.6,6.8c-0.5,0.7,0,0-2.9,4c-1,1.4-2.2,3.1-3.1,5.2c-0.3,0.9-0.5,1.8-0.6,2.7c-0.1,0.9-0.2,1.4,0.1,1.6
	c0.6,0.5,2.2-0.3,3.1-1c0.9-0.7,1.1-1,2.1-2.1c0.6-0.6,1.3-1.1,1.9-1.6c0.1-0.1,0.3-0.3,0.4-0.2c0.1,0.1,0.1,0.4,0,0.6
	c-0.1,0.3-0.2,0.7-0.4,1c-0.1,0.3-0.3,0.6-0.4,0.9c-0.4,0.8-0.4,0.9-1.7,3.1c-1.4,2.5-1.7,2.9-1.9,3.9c-0.2,0.6-0.2,1.2-0.2,1.8
	c0,0.9,0,1.5,0.4,1.9c1,1,4.2-1,5.6-1.8c1.3-0.8,2.5-1.7,4.2-3.1c1.8-1.4,0.2-0.1,8.9-6.7l3.5-2.7H29c1.7-0.8,3-1.6,4-2.2
	c1.9-1.2,3.3-2.2,4.5-3c1.1-0.8,1.6-1.2,2.1-1.6c0.2-0.2,0.5-0.3,0.8-0.3c0.2,0.1,0.4,0.2,0.6,0.4c0.3,0.3,0.4,0.6,0.5,1
	c0,0.4-0.1,1.1-0.2,1.9c-0.5,4.5-0.7,6.5-0.9,9c-0.4,4-0.4,3.4-0.9,7.9c-0.4,4.1-0.4,4.2-0.9,9c-0.5,5.2-0.6,5.2-1,9.3
	c-0.3,2.8-0.5,5.2-0.7,8.4c-0.3,3.6-0.2,3.8-0.4,7c-0.2,3.2-0.3,3.8-0.8,8.7c-0.4,4.5-0.3,4-0.9,10.4c-0.6,6.4-0.6,6.7-0.9,9.9
	c-0.3,4.3-0.5,7.7-0.6,9.7c-0.2,3.3-0.2,4.4-0.3,8.7c-0.3,8.5-0.4,12.8-0.8,16.8c-0.5,5.9-0.8,8.9-1.3,10.5
	c-0.8,2.8-1.4,5.6-1.7,8.5c0,0.4-0.1,0.9,0,1.3c0,1,0,1.3,0.2,1.6c0.2,0.2,0.3,0.4,0.8,0.4c0.4,0,0.7-0.4,0.8-0.6
	c0.1-0.1,0.3-0.8,0.4-1.8c0.2-1.4,0.4-2,0.5-2.2c0.2-0.6,0.5-1.3,0.8-1.3c0.3,0,1,1.7,1,1.8c0,0.7,0,1.4,0.1,1.8
	c0,0.5,0.1,1.1,0.2,1.6c0.1,0.6,0.3,1.4,0.5,1.4c0.2,0,0.3-0.5,0.8-2c0.4-1.4,0.6-1.9,0.8-2.5c0.5-1.2,0.7-1.3,1.2-2.4
	c0.5-1.1,0.4-1.3,0.9-2.9c0.4-1.6,0.5-1.4,1.3-3.9c0.8-2.5,0.8-2.7,1.3-4c0.4-1,0.9-2,1.4-2.9c1-1.5,1.5-1.7,2.8-3.5
	c0.9-1.1,1.7-2.3,2.3-3.5c0.4-0.8,0.6-1.3,1.5-5c0.8-3.3,1.3-5,1.7-6.8c0.4-1.7,0.7-3.4,0.9-4.6c0.7-4,0.7-4.9,1.3-7.8
	c0.4-2.2,0.8-3.7,1.4-6.2c0.4-1.5,1-4,2.4-9c1.4-5,1.7-5.8,3.4-11.7c1.2-4.2,1.8-6.3,2.2-7.8c1.2-5,0.9-5.6,2.1-11.5
	c0.6-3,1.2-5.1,2.3-9.3c0.6-2.4,0.7-2.4,2.2-8.1c1.8-6.8,2.1-8.1,2.3-8.8c0.3-1.3,0.7-3.4,1.6-7.6c1.1-5.4,1.5-7.4,2.5-10.3
	c0.5-1.3,1-2.6,1.6-3.9h1.3c0.3,0.3,0.6,0.5,0.9,0.7l2.5,0.1l0.5,2.3c0,0.6,0,1.2,0,1.7c0.3,0.7,0.7,1.3,1.3,1.8
	c0.5,0.4,1.7,1.3,3.3,1.4c0.6,0,1.1-0.1,1.6,0.2c0.4,0.3,0.6,0.7,0.6,1.1c0,0.3-0.1,0.4-0.4,0.9c0,0-0.1,0.2-0.4,1
	c-0.7,1.9-0.5,5.4-0.5,5.4c0,0.8-0.4,2.9-1.3,7c-0.2,0.8-0.6,2.6-1.7,7.4c-1.2,4.7-1.7,6.8-2.4,9.6c-0.2,0.6-1,3.6-2.2,7.6
	c-1,3.1-1.1,3.4-3,9.2c-1.4,4.2-2,6.3-2.7,8.5c-0.9,3-1.5,5.2-2.4,8.8c-1.3,4.7-1.9,7.1-2.5,9.8c-0.8,3.2-1.7,7.8-2.6,13.1
	c-0.8,5-1.2,8.5-1.3,9.5c-0.2,2-0.3,3.6-0.4,4.9c-0.4,5.9-0.4,11.7,0,17.6c0.4,5.2,1,9.1,1.3,10.9c0.2,0.9,0.8,4.8,2.2,9.9
	c0.5,2,1.2,4.9,2.5,8.6c0.6,1.7,1.7,4.8,3.4,8.6c0.7,1.5,2,4.2,3.8,7.7c0.5,0.9,2,3.6,4.7,7.7c3.6,5.4,5.3,8.2,8.1,11.4
	c5,5.7,8.7,7.8,9.8,8.5c1.2,0.7,2.5,1.3,3.9,1.8c2.5,1,5,1.6,7.7,1.8L179.1,535.8L179.1,535.8z"/>
</svg>
